<svg width="35" height="33" viewBox="0 0 35 33" fill="none" xmlns="http://www.w3.org/2000/svg">
<path d="M4.0625 0C2.98506 0 1.95175 0.434601 1.18988 1.2082C0.428012 1.98179 0 3.03101 0 4.12504V14.1774C1.37561 12.3982 3.36775 11.2188 5.57025 10.8796C7.77275 10.5403 10.0197 11.0669 11.8531 12.3519C13.6864 13.6368 14.9681 15.5834 15.4367 17.7948C15.9053 20.0062 15.5256 22.3158 14.375 24.2527V26.6541H30.9375C32.0149 26.6541 33.0483 26.2195 33.8101 25.4459C34.572 24.6723 35 23.6231 35 22.5291V4.12504C35 3.03101 34.572 1.98179 33.8101 1.2082C33.0483 0.434601 32.0149 0 30.9375 0H4.0625ZM8.75 7.61546H26.25C26.5815 7.61546 26.8995 7.74918 27.1339 7.98721C27.3683 8.22524 27.5 8.54807 27.5 8.8847C27.5 9.22132 27.3683 9.54416 27.1339 9.78219C26.8995 10.0202 26.5815 10.1539 26.25 10.1539H8.75C8.41848 10.1539 8.10054 10.0202 7.86612 9.78219C7.6317 9.54416 7.5 9.22132 7.5 8.8847C7.5 8.54807 7.6317 8.22524 7.86612 7.98721C8.10054 7.74918 8.41848 7.61546 8.75 7.61546ZM17.5 17.7694C17.5 17.4328 17.6317 17.1099 17.8661 16.8719C18.1005 16.6339 18.4185 16.5002 18.75 16.5002H26.25C26.5815 16.5002 26.8995 16.6339 27.1339 16.8719C27.3683 17.1099 27.5 17.4328 27.5 17.7694C27.5 18.106 27.3683 18.4289 27.1339 18.6669C26.8995 18.9049 26.5815 19.0386 26.25 19.0386H18.75C18.4185 19.0386 18.1005 18.9049 17.8661 18.6669C17.6317 18.4289 17.5 18.106 17.5 17.7694ZM13.75 19.6733C13.75 21.5247 13.0257 23.3003 11.7364 24.6095C10.447 25.9186 8.69836 26.6541 6.875 26.6541C5.05164 26.6541 3.30295 25.9186 2.01364 24.6095C0.724328 23.3003 0 21.5247 0 19.6733C0 17.8218 0.724328 16.0462 2.01364 14.7371C3.30295 13.4279 5.05164 12.6924 6.875 12.6924C8.69836 12.6924 10.447 13.4279 11.7364 14.7371C13.0257 16.0462 13.75 17.8218 13.75 19.6733ZM12.5 26.4789C10.9256 27.8246 8.93294 28.5611 6.875 28.558C4.81706 28.5611 2.82444 27.8246 1.25 26.4789V31.7311C1.25005 31.9574 1.30969 32.1795 1.42272 32.3745C1.53576 32.5695 1.69808 32.7303 1.89289 32.8402C2.08769 32.9501 2.30789 33.0052 2.53068 32.9996C2.75347 32.9941 2.97074 32.9281 3.16 32.8087L6.875 30.4606L10.59 32.8087C10.7793 32.9282 10.9967 32.9941 11.2196 32.9996C11.4425 33.0051 11.6628 32.95 11.8577 32.8399C12.0525 32.7299 12.2148 32.5689 12.3278 32.3737C12.4407 32.1785 12.5002 31.9562 12.5 31.7298V26.4789Z" fill="#39989E"/>
</svg>
