<svg width="25" height="32" viewBox="0 0 25 32" fill="none" xmlns="http://www.w3.org/2000/svg">
<path fill-rule="evenodd" clip-rule="evenodd" d="M15.9677 0.399194C15.9677 0.293321 15.9257 0.191784 15.8508 0.116921C15.776 0.0420578 15.6744 0 15.5685 0H4.39113C3.22653 0 2.10963 0.462636 1.28613 1.28613C0.462635 2.10963 0 3.22653 0 4.39113V26.746C0 27.9106 0.462635 29.0275 1.28613 29.851C2.10963 30.6745 3.22653 31.1371 4.39113 31.1371H20.3589C21.5235 31.1371 22.6404 30.6745 23.4639 29.851C24.2874 29.0275 24.75 27.9106 24.75 26.746V11.013C24.75 10.9071 24.7079 10.8055 24.6331 10.7307C24.5582 10.6558 24.4567 10.6138 24.3508 10.6138H17.1653C16.8477 10.6138 16.5431 10.4876 16.3185 10.263C16.0939 10.0384 15.9677 9.7338 15.9677 9.41618V0.399194ZM17.1653 15.9677C17.4829 15.9677 17.7875 16.0939 18.0121 16.3185C18.2367 16.5431 18.3629 16.8477 18.3629 17.1653C18.3629 17.4829 18.2367 17.7875 18.0121 18.0121C17.7875 18.2367 17.4829 18.3629 17.1653 18.3629H7.58468C7.26706 18.3629 6.96245 18.2367 6.73786 18.0121C6.51327 17.7875 6.3871 17.4829 6.3871 17.1653C6.3871 16.8477 6.51327 16.5431 6.73786 16.3185C6.96245 16.0939 7.26706 15.9677 7.58468 15.9677H17.1653ZM17.1653 22.3548C17.4829 22.3548 17.7875 22.481 18.0121 22.7056C18.2367 22.9302 18.3629 23.2348 18.3629 23.5524C18.3629 23.87 18.2367 24.1746 18.0121 24.3992C17.7875 24.6238 17.4829 24.75 17.1653 24.75H7.58468C7.26706 24.75 6.96245 24.6238 6.73786 24.3992C6.51327 24.1746 6.3871 23.87 6.3871 23.5524C6.3871 23.2348 6.51327 22.9302 6.73786 22.7056C6.96245 22.481 7.26706 22.3548 7.58468 22.3548H17.1653Z" fill="#004EE4"/>
<path d="M18.3633 0.916558C18.3633 0.622751 18.6715 0.435929 18.8998 0.619558C19.093 0.776042 19.2671 0.958074 19.4156 1.16565L24.2266 7.86732C24.3352 8.02061 24.2171 8.21861 24.0286 8.21861H18.7625C18.6566 8.21861 18.5551 8.17655 18.4802 8.10169C18.4053 8.02682 18.3633 7.92529 18.3633 7.81941V0.916558Z" fill="#004EE4"/>
</svg>
